solid OpenSCAD_Model
  facet normal 1 -0 0
    outer loop
      vertex 180 27 59
      vertex 180 112 4
      vertex 180 112 59
    endloop
  endfacet
  facet normal 1 0 0
    outer loop
      vertex 180 112 4
      vertex 180 27 59
      vertex 180 27 4
    endloop
  endfacet
  facet normal 0 0 1
    outer loop
      vertex 118.5 112 59
      vertex 33 109 59
      vertex 118.5 109 59
    endloop
  endfacet
  facet normal 0 0 1
    outer loop
      vertex 33 109 59
      vertex 30 112 59
      vertex 33 30 59
    endloop
  endfacet
  facet normal -0 0 1
    outer loop
      vertex 30 112 59
      vertex 33 109 59
      vertex 118.5 112 59
    endloop
  endfacet
  facet normal 0 0 1
    outer loop
      vertex 180 112 59
      vertex 177 109 59
      vertex 180 27 59
    endloop
  endfacet
  facet normal -0 0 1
    outer loop
      vertex 151.5 112 59
      vertex 177 109 59
      vertex 180 112 59
    endloop
  endfacet
  facet normal 0 0 1
    outer loop
      vertex 177 109 59
      vertex 151.5 112 59
      vertex 151.5 109 59
    endloop
  endfacet
  facet normal -0 0 1
    outer loop
      vertex 177 30 59
      vertex 180 27 59
      vertex 177 109 59
    endloop
  endfacet
  facet normal -0 0 1
    outer loop
      vertex 33 30 59
      vertex 180 27 59
      vertex 177 30 59
    endloop
  endfacet
  facet normal 0 0 1
    outer loop
      vertex 33 30 59
      vertex 30 27 59
      vertex 180 27 59
    endloop
  endfacet
  facet normal 0 0 1
    outer loop
      vertex 30 27 59
      vertex 33 30 59
      vertex 30 112 59
    endloop
  endfacet
  facet normal 0 0 -1
    outer loop
      vertex 136.15 112 59
      vertex 151.5 116 59
      vertex 151.5 112 59
    endloop
  endfacet
  facet normal -0 0 -1
    outer loop
      vertex 151.5 116 59
      vertex 136.15 112 59
      vertex 136.15 116 59
    endloop
  endfacet
  facet normal 0 0 -1
    outer loop
      vertex 118.5 112 59
      vertex 133.85 116 59
      vertex 133.85 112 59
    endloop
  endfacet
  facet normal -0 0 -1
    outer loop
      vertex 133.85 116 59
      vertex 118.5 112 59
      vertex 118.5 116 59
    endloop
  endfacet
  facet normal -0 0 1
    outer loop
      vertex 133.85 112 59
      vertex 136.15 109 59
      vertex 136.15 112 59
    endloop
  endfacet
  facet normal 0 0 1
    outer loop
      vertex 136.15 109 59
      vertex 133.85 112 59
      vertex 133.85 109 59
    endloop
  endfacet
  facet normal 0 0 1
    outer loop
      vertex 177 109 4
      vertex 87.1 32.5 4
      vertex 177 30 4
    endloop
  endfacet
  facet normal -0 0 1
    outer loop
      vertex 33 109 4
      vertex 87.1 32.5 4
      vertex 177 109 4
    endloop
  endfacet
  facet normal 0 0 1
    outer loop
      vertex 84.1 32.5 4
      vertex 65.9 32.5 4
      vertex 84.1 30 4
    endloop
  endfacet
  facet normal 0 0 1
    outer loop
      vertex 87.1 32.5 4
      vertex 33 109 4
      vertex 84.1 32.5 4
    endloop
  endfacet
  facet normal 0 0 1
    outer loop
      vertex 84.1 32.5 4
      vertex 33 109 4
      vertex 65.9 32.5 4
    endloop
  endfacet
  facet normal 0 0 1
    outer loop
      vertex 65.9 32.5 4
      vertex 33 109 4
      vertex 62.9 32.5 4
    endloop
  endfacet
  facet normal 0 0 1
    outer loop
      vertex 33 30 4
      vertex 62.9 32.5 4
      vertex 33 109 4
    endloop
  endfacet
  facet normal 0 0 1
    outer loop
      vertex 62.9 32.5 4
      vertex 33 30 4
      vertex 62.9 30 4
    endloop
  endfacet
  facet normal 0 0 1
    outer loop
      vertex 177 30 4
      vertex 87.1 32.5 4
      vertex 87.1 30 4
    endloop
  endfacet
  facet normal 0 0 1
    outer loop
      vertex 84.1 30 4
      vertex 65.9 32.5 4
      vertex 65.9 30 4
    endloop
  endfacet
  facet normal 0 0 1
    outer loop
      vertex 214 140 4
      vertex 220 134 4
      vertex 219.971 134.588 4
    endloop
  endfacet
  facet normal 0 0 1
    outer loop
      vertex 220 134 4
      vertex 200.1 82.1 4
      vertex 220 6 4
    endloop
  endfacet
  facet normal 0 0 1
    outer loop
      vertex 214 140 4
      vertex 219.971 134.588 4
      vertex 219.885 135.171 4
    endloop
  endfacet
  facet normal -0 0 1
    outer loop
      vertex 200.1 56.9 4
      vertex 220 6 4
      vertex 200.1 82.1 4
    endloop
  endfacet
  facet normal 0 0 1
    outer loop
      vertex 214 140 4
      vertex 219.885 135.171 4
      vertex 219.742 135.742 4
    endloop
  endfacet
  facet normal -0 0 1
    outer loop
      vertex 180 27 4
      vertex 220 6 4
      vertex 200.1 56.9 4
    endloop
  endfacet
  facet normal 0 0 1
    outer loop
      vertex 214 140 4
      vertex 219.742 135.742 4
      vertex 219.543 136.296 4
    endloop
  endfacet
  facet normal 0 -0 1
    outer loop
      vertex 214 0 4
      vertex 220 6 4
      vertex 180 27 4
    endloop
  endfacet
  facet normal 0 0 1
    outer loop
      vertex 214 140 4
      vertex 219.543 136.296 4
      vertex 219.292 136.828 4
    endloop
  endfacet
  facet normal 0 0 1
    outer loop
      vertex 220 6 4
      vertex 214 0 4
      vertex 219.971 5.4119 4
    endloop
  endfacet
  facet normal 0 0 1
    outer loop
      vertex 214 140 4
      vertex 219.292 136.828 4
      vertex 218.989 137.333 4
    endloop
  endfacet
  facet normal 0 0 1
    outer loop
      vertex 219.971 5.4119 4
      vertex 214 0 4
      vertex 219.885 4.82945 4
    endloop
  endfacet
  facet normal 0 0 1
    outer loop
      vertex 214 140 4
      vertex 218.989 137.333 4
      vertex 218.638 137.806 4
    endloop
  endfacet
  facet normal 0 0 1
    outer loop
      vertex 219.885 4.82945 4
      vertex 214 0 4
      vertex 219.742 4.25829 4
    endloop
  endfacet
  facet normal 0 0 1
    outer loop
      vertex 214 140 4
      vertex 218.638 137.806 4
      vertex 218.243 138.243 4
    endloop
  endfacet
  facet normal 0 0 1
    outer loop
      vertex 219.742 4.25829 4
      vertex 214 0 4
      vertex 219.543 3.7039 4
    endloop
  endfacet
  facet normal 0 0 1
    outer loop
      vertex 214 140 4
      vertex 218.243 138.243 4
      vertex 217.806 138.638 4
    endloop
  endfacet
  facet normal 0 0 1
    outer loop
      vertex 219.543 3.7039 4
      vertex 214 0 4
      vertex 219.292 3.17162 4
    endloop
  endfacet
  facet normal 0 0 1
    outer loop
      vertex 214 140 4
      vertex 217.806 138.638 4
      vertex 217.333 138.989 4
    endloop
  endfacet
  facet normal 0 0 1
    outer loop
      vertex 219.292 3.17162 4
      vertex 214 0 4
      vertex 218.989 2.66658 4
    endloop
  endfacet
  facet normal 0 0 1
    outer loop
      vertex 214 140 4
      vertex 217.333 138.989 4
      vertex 216.828 139.292 4
    endloop
  endfacet
  facet normal 0 0 1
    outer loop
      vertex 218.989 2.66658 4
      vertex 214 0 4
      vertex 218.638 2.19363 4
    endloop
  endfacet
  facet normal 0 0 1
    outer loop
      vertex 214 140 4
      vertex 216.828 139.292 4
      vertex 216.296 139.543 4
    endloop
  endfacet
  facet normal 0 0 1
    outer loop
      vertex 218.638 2.19363 4
      vertex 214 0 4
      vertex 218.243 1.75735 4
    endloop
  endfacet
  facet normal 0 0 1
    outer loop
      vertex 214 140 4
      vertex 216.296 139.543 4
      vertex 215.742 139.742 4
    endloop
  endfacet
  facet normal 0 0 1
    outer loop
      vertex 218.243 1.75735 4
      vertex 214 0 4
      vertex 217.806 1.36194 4
    endloop
  endfacet
  facet normal 0 0 1
    outer loop
      vertex 214 140 4
      vertex 215.742 139.742 4
      vertex 215.171 139.885 4
    endloop
  endfacet
  facet normal 0 0 1
    outer loop
      vertex 217.806 1.36194 4
      vertex 214 0 4
      vertex 217.333 1.01118 4
    endloop
  endfacet
  facet normal 0 0 1
    outer loop
      vertex 214 140 4
      vertex 215.171 139.885 4
      vertex 214.588 139.971 4
    endloop
  endfacet
  facet normal 0 0 1
    outer loop
      vertex 216.828 0.708466 4
      vertex 214 0 4
      vertex 216.296 0.456726 4
    endloop
  endfacet
  facet normal 0 0 1
    outer loop
      vertex 220 134 4
      vertex 214 140 4
      vertex 180 112 4
    endloop
  endfacet
  facet normal 0 0 1
    outer loop
      vertex 216.296 0.456726 4
      vertex 214 0 4
      vertex 215.742 0.258362 4
    endloop
  endfacet
  facet normal 0 0 1
    outer loop
      vertex 215.742 0.258362 4
      vertex 214 0 4
      vertex 215.171 0.115295 4
    endloop
  endfacet
  facet normal 0 0 1
    outer loop
      vertex 220 134 4
      vertex 180 112 4
      vertex 200.1 82.1 4
    endloop
  endfacet
  facet normal 0 0 1
    outer loop
      vertex 180 112 4
      vertex 181.5 78.1 4
      vertex 181.5 82.1 4
    endloop
  endfacet
  facet normal 0 0 1
    outer loop
      vertex 181.5 78.1 4
      vertex 180 112 4
      vertex 181.5 60.9 4
    endloop
  endfacet
  facet normal 0 0 1
    outer loop
      vertex 180 27 4
      vertex 181.5 60.9 4
      vertex 180 112 4
    endloop
  endfacet
  facet normal 0 0 1
    outer loop
      vertex 200.1 82.1 4
      vertex 180 112 4
      vertex 181.5 82.1 4
    endloop
  endfacet
  facet normal -0 0 1
    outer loop
      vertex 6 140 4
      vertex 180 112 4
      vertex 214 140 4
    endloop
  endfacet
  facet normal -0 0 1
    outer loop
      vertex 0 134 4
      vertex 30 112 4
      vertex 6 140 4
    endloop
  endfacet
  facet normal 0 0 1
    outer loop
      vertex 180 112 4
      vertex 6 140 4
      vertex 30 112 4
    endloop
  endfacet
  facet normal 0 0 1
    outer loop
      vertex 215.171 0.115295 4
      vertex 214 0 4
      vertex 214.588 0.0288849 4
    endloop
  endfacet
  facet normal 0 0 1
    outer loop
      vertex 180 27 4
      vertex 200.1 56.9 4
      vertex 181.5 56.9 4
    endloop
  endfacet
  facet normal 0 0 1
    outer loop
      vertex 181.5 60.9 4
      vertex 180 27 4
      vertex 181.5 56.9 4
    endloop
  endfacet
  facet normal 0 0 1
    outer loop
      vertex 217.333 1.01118 4
      vertex 214 0 4
      vertex 216.828 0.708466 4
    endloop
  endfacet
  facet normal 0 0 1
    outer loop
      vertex 6 0 4
      vertex 180 27 4
      vertex 30 27 4
    endloop
  endfacet
  facet normal 0 0 1
    outer loop
      vertex 180 27 4
      vertex 6 0 4
      vertex 214 0 4
    endloop
  endfacet
  facet normal 0 0 1
    outer loop
      vertex 0 6 4
      vertex 30 112 4
      vertex 0 134 4
    endloop
  endfacet
  facet normal 0 0 1
    outer loop
      vertex 0 134 4
      vertex 6 140 4
      vertex 5.4119 139.971 4
    endloop
  endfacet
  facet normal 0 0 1
    outer loop
      vertex 30 112 4
      vertex 0 6 4
      vertex 30 27 4
    endloop
  endfacet
  facet normal 0 0 1
    outer loop
      vertex 0 134 4
      vertex 5.4119 139.971 4
      vertex 4.82945 139.885 4
    endloop
  endfacet
  facet normal 0 0 1
    outer loop
      vertex 30 27 4
      vertex 0 6 4
      vertex 6 0 4
    endloop
  endfacet
  facet normal 0 0 1
    outer loop
      vertex 0 134 4
      vertex 4.82945 139.885 4
      vertex 4.25829 139.742 4
    endloop
  endfacet
  facet normal 0 0 1
    outer loop
      vertex 6 0 4
      vertex 0 6 4
      vertex 5.4119 0.0288849 4
    endloop
  endfacet
  facet normal 0 0 1
    outer loop
      vertex 0 134 4
      vertex 4.25829 139.742 4
      vertex 3.7039 139.543 4
    endloop
  endfacet
  facet normal 0 0 1
    outer loop
      vertex 5.4119 0.0288849 4
      vertex 0 6 4
      vertex 4.82945 0.115295 4
    endloop
  endfacet
  facet normal 0 0 1
    outer loop
      vertex 0 134 4
      vertex 3.7039 139.543 4
      vertex 3.17162 139.292 4
    endloop
  endfacet
  facet normal 0 0 1
    outer loop
      vertex 4.82945 0.115295 4
      vertex 0 6 4
      vertex 4.25829 0.258362 4
    endloop
  endfacet
  facet normal 0 0 1
    outer loop
      vertex 0 134 4
      vertex 3.17162 139.292 4
      vertex 2.66658 138.989 4
    endloop
  endfacet
  facet normal 0 0 1
    outer loop
      vertex 4.25829 0.258362 4
      vertex 0 6 4
      vertex 3.7039 0.456726 4
    endloop
  endfacet
  facet normal 0 0 1
    outer loop
      vertex 0 134 4
      vertex 2.66658 138.989 4
      vertex 2.19363 138.638 4
    endloop
  endfacet
  facet normal 0 0 1
    outer loop
      vertex 3.7039 0.456726 4
      vertex 0 6 4
      vertex 3.17162 0.708466 4
    endloop
  endfacet
  facet normal 0 0 1
    outer loop
      vertex 0 134 4
      vertex 2.19363 138.638 4
      vertex 1.75735 138.243 4
    endloop
  endfacet
  facet normal 0 0 1
    outer loop
      vertex 3.17162 0.708466 4
      vertex 0 6 4
      vertex 2.66658 1.01118 4
    endloop
  endfacet
  facet normal 0 0 1
    outer loop
      vertex 0 134 4
      vertex 1.75735 138.243 4
      vertex 1.36194 137.806 4
    endloop
  endfacet
  facet normal 0 0 1
    outer loop
      vertex 2.66658 1.01118 4
      vertex 0 6 4
      vertex 2.19363 1.36194 4
    endloop
  endfacet
  facet normal 0 0 1
    outer loop
      vertex 0 134 4
      vertex 1.36194 137.806 4
      vertex 1.01118 137.333 4
    endloop
  endfacet
  facet normal 0 0 1
    outer loop
      vertex 2.19363 1.36194 4
      vertex 0 6 4
      vertex 1.75735 1.75735 4
    endloop
  endfacet
  facet normal 0 0 1
    outer loop
      vertex 0 134 4
      vertex 1.01118 137.333 4
      vertex 0.708466 136.828 4
    endloop
  endfacet
  facet normal 0 0 1
    outer loop
      vertex 1.75735 1.75735 4
      vertex 0 6 4
      vertex 1.36194 2.19363 4
    endloop
  endfacet
  facet normal 0 0 1
    outer loop
      vertex 0 134 4
      vertex 0.708466 136.828 4
      vertex 0.456726 136.296 4
    endloop
  endfacet
  facet normal 0 0 1
    outer loop
      vertex 1.36194 2.19363 4
      vertex 0 6 4
      vertex 1.01118 2.66658 4
    endloop
  endfacet
  facet normal 0 0 1
    outer loop
      vertex 0 134 4
      vertex 0.456726 136.296 4
      vertex 0.258362 135.742 4
    endloop
  endfacet
  facet normal 0 0 1
    outer loop
      vertex 1.01118 2.66658 4
      vertex 0 6 4
      vertex 0.708466 3.17162 4
    endloop
  endfacet
  facet normal 0 0 1
    outer loop
      vertex 0 134 4
      vertex 0.258362 135.742 4
      vertex 0.115295 135.171 4
    endloop
  endfacet
  facet normal 0 0 1
    outer loop
      vertex 0.708466 3.17162 4
      vertex 0 6 4
      vertex 0.456726 3.7039 4
    endloop
  endfacet
  facet normal 0 0 1
    outer loop
      vertex 0 134 4
      vertex 0.115295 135.171 4
      vertex 0.0288849 134.588 4
    endloop
  endfacet
  facet normal 0 0 1
    outer loop
      vertex 0.456726 3.7039 4
      vertex 0 6 4
      vertex 0.258362 4.25829 4
    endloop
  endfacet
  facet normal 0 0 1
    outer loop
      vertex 0.258362 4.25829 4
      vertex 0 6 4
      vertex 0.115295 4.82945 4
    endloop
  endfacet
  facet normal 0 0 1
    outer loop
      vertex 0.115295 4.82945 4
      vertex 0 6 4
      vertex 0.0288849 5.4119 4
    endloop
  endfacet
  facet normal -0 0 1
    outer loop
      vertex 181.5 78.1 4
      vertex 196.5 60.9 4
      vertex 196.5 78.1 4
    endloop
  endfacet
  facet normal 0 0 1
    outer loop
      vertex 196.5 60.9 4
      vertex 181.5 78.1 4
      vertex 181.5 60.9 4
    endloop
  endfacet
  facet normal -1 0 0
    outer loop
      vertex 30 27 4
      vertex 30 112 59
      vertex 30 112 4
    endloop
  endfacet
  facet normal -1 -0 0
    outer loop
      vertex 30 112 59
      vertex 30 27 4
      vertex 30 27 59
    endloop
  endfacet
  facet normal 0 1 -0
    outer loop
      vertex 180 112 4
      vertex 151.5 112 59
      vertex 180 112 59
    endloop
  endfacet
  facet normal 0 1 0
    outer loop
      vertex 151.5 112 59
      vertex 180 112 4
      vertex 136.15 112 59
    endloop
  endfacet
  facet normal 0 1 0
    outer loop
      vertex 136.15 112 59
      vertex 180 112 4
      vertex 133.85 112 59
    endloop
  endfacet
  facet normal 0 1 0
    outer loop
      vertex 133.85 112 59
      vertex 180 112 4
      vertex 118.5 112 59
    endloop
  endfacet
  facet normal 0 1 0
    outer loop
      vertex 30 112 4
      vertex 118.5 112 59
      vertex 180 112 4
    endloop
  endfacet
  facet normal 0 1 0
    outer loop
      vertex 118.5 112 59
      vertex 30 112 4
      vertex 30 112 59
    endloop
  endfacet
  facet normal 0 -1 0
    outer loop
      vertex 30 27 4
      vertex 180 27 59
      vertex 30 27 59
    endloop
  endfacet
  facet normal 0 -1 -0
    outer loop
      vertex 180 27 59
      vertex 30 27 4
      vertex 180 27 4
    endloop
  endfacet
  facet normal -1 0 0
    outer loop
      vertex 177 30 4
      vertex 177 109 59
      vertex 177 109 4
    endloop
  endfacet
  facet normal -1 -0 0
    outer loop
      vertex 177 109 59
      vertex 177 30 4
      vertex 177 30 59
    endloop
  endfacet
  facet normal 1 -0 0
    outer loop
      vertex 33 30 59
      vertex 33 109 4
      vertex 33 109 59
    endloop
  endfacet
  facet normal 1 0 0
    outer loop
      vertex 33 109 4
      vertex 33 30 59
      vertex 33 30 4
    endloop
  endfacet
  facet normal 0 -1 0
    outer loop
      vertex 33 109 4
      vertex 118.5 109 59
      vertex 33 109 59
    endloop
  endfacet
  facet normal 0 -1 0
    outer loop
      vertex 177 109 4
      vertex 118.5 109 59
      vertex 33 109 4
    endloop
  endfacet
  facet normal 0 -1 0
    outer loop
      vertex 118.5 109 59
      vertex 177 109 4
      vertex 133.85 109 59
    endloop
  endfacet
  facet normal 0 -1 0
    outer loop
      vertex 133.85 109 59
      vertex 177 109 4
      vertex 136.15 109 59
    endloop
  endfacet
  facet normal 0 -1 0
    outer loop
      vertex 136.15 109 59
      vertex 177 109 4
      vertex 151.5 109 59
    endloop
  endfacet
  facet normal 0 -1 0
    outer loop
      vertex 151.5 109 59
      vertex 177 109 4
      vertex 177 109 59
    endloop
  endfacet
  facet normal 0 1 -0
    outer loop
      vertex 84.1 30 4
      vertex 65.9 30 44
      vertex 84.1 30 44
    endloop
  endfacet
  facet normal 0 1 0
    outer loop
      vertex 65.9 30 44
      vertex 84.1 30 4
      vertex 65.9 30 4
    endloop
  endfacet
  facet normal 0 1 0
    outer loop
      vertex 177 30 59
      vertex 87.1 30 44
      vertex 33 30 59
    endloop
  endfacet
  facet normal 0 1 -0
    outer loop
      vertex 177 30 4
      vertex 87.1 30 44
      vertex 177 30 59
    endloop
  endfacet
  facet normal 0 1 0
    outer loop
      vertex 87.1 30 44
      vertex 177 30 4
      vertex 87.1 30 4
    endloop
  endfacet
  facet normal 0 1 -0
    outer loop
      vertex 84.1 30 44
      vertex 33 30 59
      vertex 87.1 30 44
    endloop
  endfacet
  facet normal 0 1 -0
    outer loop
      vertex 65.9 30 44
      vertex 33 30 59
      vertex 84.1 30 44
    endloop
  endfacet
  facet normal 0 1 -0
    outer loop
      vertex 62.9 30 44
      vertex 33 30 59
      vertex 65.9 30 44
    endloop
  endfacet
  facet normal 0 1 0
    outer loop
      vertex 33 30 4
      vertex 62.9 30 44
      vertex 62.9 30 4
    endloop
  endfacet
  facet normal 0 1 0
    outer loop
      vertex 62.9 30 44
      vertex 33 30 4
      vertex 33 30 59
    endloop
  endfacet
  facet normal 1 -0 0
    outer loop
      vertex 65.9 30 44
      vertex 65.9 32.5 4
      vertex 65.9 32.5 44
    endloop
  endfacet
  facet normal 1 0 0
    outer loop
      vertex 65.9 32.5 4
      vertex 65.9 30 44
      vertex 65.9 30 4
    endloop
  endfacet
  facet normal -0 0 1
    outer loop
      vertex 62.9 32.5 44
      vertex 65.9 30 44
      vertex 65.9 32.5 44
    endloop
  endfacet
  facet normal 0 0 1
    outer loop
      vertex 65.9 30 44
      vertex 62.9 32.5 44
      vertex 62.9 30 44
    endloop
  endfacet
  facet normal -1 0 0
    outer loop
      vertex 62.9 30 4
      vertex 62.9 32.5 44
      vertex 62.9 32.5 4
    endloop
  endfacet
  facet normal -1 -0 0
    outer loop
      vertex 62.9 32.5 44
      vertex 62.9 30 4
      vertex 62.9 30 44
    endloop
  endfacet
  facet normal 0 1 -0
    outer loop
      vertex 65.9 32.5 4
      vertex 62.9 32.5 44
      vertex 65.9 32.5 44
    endloop
  endfacet
  facet normal 0 1 0
    outer loop
      vertex 62.9 32.5 44
      vertex 65.9 32.5 4
      vertex 62.9 32.5 4
    endloop
  endfacet
  facet normal 1 -0 0
    outer loop
      vertex 87.1 30 44
      vertex 87.1 32.5 4
      vertex 87.1 32.5 44
    endloop
  endfacet
  facet normal 1 0 0
    outer loop
      vertex 87.1 32.5 4
      vertex 87.1 30 44
      vertex 87.1 30 4
    endloop
  endfacet
  facet normal -0 0 1
    outer loop
      vertex 84.1 32.5 44
      vertex 87.1 30 44
      vertex 87.1 32.5 44
    endloop
  endfacet
  facet normal 0 0 1
    outer loop
      vertex 87.1 30 44
      vertex 84.1 32.5 44
      vertex 84.1 30 44
    endloop
  endfacet
  facet normal -1 0 0
    outer loop
      vertex 84.1 30 4
      vertex 84.1 32.5 44
      vertex 84.1 32.5 4
    endloop
  endfacet
  facet normal -1 -0 0
    outer loop
      vertex 84.1 32.5 44
      vertex 84.1 30 4
      vertex 84.1 30 44
    endloop
  endfacet
  facet normal 0 1 -0
    outer loop
      vertex 87.1 32.5 4
      vertex 84.1 32.5 44
      vertex 87.1 32.5 44
    endloop
  endfacet
  facet normal 0 1 0
    outer loop
      vertex 84.1 32.5 44
      vertex 87.1 32.5 4
      vertex 84.1 32.5 4
    endloop
  endfacet
  facet normal 1 0 0
    outer loop
      vertex 151.5 116 79
      vertex 151.5 112 59
      vertex 151.5 116 59
    endloop
  endfacet
  facet normal 1 -0 0
    outer loop
      vertex 151.5 109 79
      vertex 151.5 112 59
      vertex 151.5 116 79
    endloop
  endfacet
  facet normal 1 0 0
    outer loop
      vertex 151.5 112 59
      vertex 151.5 109 79
      vertex 151.5 109 59
    endloop
  endfacet
  facet normal -0 0 1
    outer loop
      vertex 118.5 116 79
      vertex 133.85 109 79
      vertex 133.85 116 79
    endloop
  endfacet
  facet normal 0 0 1
    outer loop
      vertex 133.85 109 79
      vertex 118.5 116 79
      vertex 118.5 109 79
    endloop
  endfacet
  facet normal -0 0 1
    outer loop
      vertex 136.15 116 79
      vertex 151.5 109 79
      vertex 151.5 116 79
    endloop
  endfacet
  facet normal 0 0 1
    outer loop
      vertex 151.5 109 79
      vertex 136.15 116 79
      vertex 136.15 109 79
    endloop
  endfacet
  facet normal -1 0 0
    outer loop
      vertex 118.5 112 59
      vertex 118.5 116 79
      vertex 118.5 116 59
    endloop
  endfacet
  facet normal -1 0 0
    outer loop
      vertex 118.5 109 79
      vertex 118.5 112 59
      vertex 118.5 109 59
    endloop
  endfacet
  facet normal -1 0 0
    outer loop
      vertex 118.5 112 59
      vertex 118.5 109 79
      vertex 118.5 116 79
    endloop
  endfacet
  facet normal 0 1 -0
    outer loop
      vertex 133.85 116 59
      vertex 118.5 116 79
      vertex 133.85 116 79
    endloop
  endfacet
  facet normal 0 1 0
    outer loop
      vertex 118.5 116 79
      vertex 133.85 116 59
      vertex 118.5 116 59
    endloop
  endfacet
  facet normal 0 1 -0
    outer loop
      vertex 151.5 116 59
      vertex 136.15 116 79
      vertex 151.5 116 79
    endloop
  endfacet
  facet normal 0 1 0
    outer loop
      vertex 136.15 116 79
      vertex 151.5 116 59
      vertex 136.15 116 59
    endloop
  endfacet
  facet normal 0 -1 0
    outer loop
      vertex 118.5 109 59
      vertex 133.85 109 79
      vertex 118.5 109 79
    endloop
  endfacet
  facet normal 0 -1 -0
    outer loop
      vertex 133.85 109 79
      vertex 118.5 109 59
      vertex 133.85 109 59
    endloop
  endfacet
  facet normal 0 -1 0
    outer loop
      vertex 136.15 109 59
      vertex 151.5 109 79
      vertex 136.15 109 79
    endloop
  endfacet
  facet normal 0 -1 -0
    outer loop
      vertex 151.5 109 79
      vertex 136.15 109 59
      vertex 151.5 109 59
    endloop
  endfacet
  facet normal -1 0 0
    outer loop
      vertex 136.15 112 59
      vertex 136.15 116 79
      vertex 136.15 116 59
    endloop
  endfacet
  facet normal -1 0 0
    outer loop
      vertex 136.15 109 79
      vertex 136.15 112 59
      vertex 136.15 109 59
    endloop
  endfacet
  facet normal -1 0 0
    outer loop
      vertex 136.15 112 59
      vertex 136.15 109 79
      vertex 136.15 116 79
    endloop
  endfacet
  facet normal 1 0 0
    outer loop
      vertex 133.85 116 79
      vertex 133.85 112 59
      vertex 133.85 116 59
    endloop
  endfacet
  facet normal 1 -0 0
    outer loop
      vertex 133.85 109 79
      vertex 133.85 112 59
      vertex 133.85 116 79
    endloop
  endfacet
  facet normal 1 0 0
    outer loop
      vertex 133.85 112 59
      vertex 133.85 109 79
      vertex 133.85 109 59
    endloop
  endfacet
  facet normal 1 -0 0
    outer loop
      vertex 200.1 56.9 34.25
      vertex 200.1 82.1 4
      vertex 200.1 82.1 34.25
    endloop
  endfacet
  facet normal 1 0 0
    outer loop
      vertex 200.1 82.1 4
      vertex 200.1 56.9 34.25
      vertex 200.1 56.9 4
    endloop
  endfacet
  facet normal 0 0 1
    outer loop
      vertex 200.1 82.1 34.25
      vertex 196.5 78.1 34.25
      vertex 200.1 56.9 34.25
    endloop
  endfacet
  facet normal -0 0 1
    outer loop
      vertex 181.5 82.1 34.25
      vertex 196.5 78.1 34.25
      vertex 200.1 82.1 34.25
    endloop
  endfacet
  facet normal 0 0 1
    outer loop
      vertex 196.5 78.1 34.25
      vertex 181.5 82.1 34.25
      vertex 181.5 78.1 34.25
    endloop
  endfacet
  facet normal -0 0 1
    outer loop
      vertex 196.5 60.9 34.25
      vertex 200.1 56.9 34.25
      vertex 196.5 78.1 34.25
    endloop
  endfacet
  facet normal 0 0 1
    outer loop
      vertex 181.5 56.9 34.25
      vertex 196.5 60.9 34.25
      vertex 181.5 60.9 34.25
    endloop
  endfacet
  facet normal 0 0 1
    outer loop
      vertex 196.5 60.9 34.25
      vertex 181.5 56.9 34.25
      vertex 200.1 56.9 34.25
    endloop
  endfacet
  facet normal -1 0 0
    outer loop
      vertex 181.5 78.1 4
      vertex 181.5 82.1 34.25
      vertex 181.5 82.1 4
    endloop
  endfacet
  facet normal -1 -0 0
    outer loop
      vertex 181.5 82.1 34.25
      vertex 181.5 78.1 4
      vertex 181.5 78.1 34.25
    endloop
  endfacet
  facet normal -1 0 0
    outer loop
      vertex 181.5 56.9 4
      vertex 181.5 60.9 34.25
      vertex 181.5 60.9 4
    endloop
  endfacet
  facet normal -1 -0 0
    outer loop
      vertex 181.5 60.9 34.25
      vertex 181.5 56.9 4
      vertex 181.5 56.9 34.25
    endloop
  endfacet
  facet normal 0 1 -0
    outer loop
      vertex 200.1 82.1 4
      vertex 181.5 82.1 34.25
      vertex 200.1 82.1 34.25
    endloop
  endfacet
  facet normal 0 1 0
    outer loop
      vertex 181.5 82.1 34.25
      vertex 200.1 82.1 4
      vertex 181.5 82.1 4
    endloop
  endfacet
  facet normal 0 -1 0
    outer loop
      vertex 181.5 56.9 4
      vertex 200.1 56.9 34.25
      vertex 181.5 56.9 34.25
    endloop
  endfacet
  facet normal 0 -1 -0
    outer loop
      vertex 200.1 56.9 34.25
      vertex 181.5 56.9 4
      vertex 200.1 56.9 4
    endloop
  endfacet
  facet normal -1 0 0
    outer loop
      vertex 196.5 60.9 4
      vertex 196.5 78.1 34.25
      vertex 196.5 78.1 4
    endloop
  endfacet
  facet normal -1 -0 0
    outer loop
      vertex 196.5 78.1 34.25
      vertex 196.5 60.9 4
      vertex 196.5 60.9 34.25
    endloop
  endfacet
  facet normal 0 -1 0
    outer loop
      vertex 181.5 78.1 4
      vertex 196.5 78.1 34.25
      vertex 181.5 78.1 34.25
    endloop
  endfacet
  facet normal 0 -1 -0
    outer loop
      vertex 196.5 78.1 34.25
      vertex 181.5 78.1 4
      vertex 196.5 78.1 4
    endloop
  endfacet
  facet normal 0 1 -0
    outer loop
      vertex 196.5 60.9 4
      vertex 181.5 60.9 34.25
      vertex 196.5 60.9 34.25
    endloop
  endfacet
  facet normal 0 1 0
    outer loop
      vertex 181.5 60.9 34.25
      vertex 196.5 60.9 4
      vertex 181.5 60.9 4
    endloop
  endfacet
  facet normal -0.242978 -0.970032 0
    outer loop
      vertex 4.25829 0.258362 0
      vertex 4.82945 0.115295 4
      vertex 4.25829 0.258362 4
    endloop
  endfacet
  facet normal -0.242978 -0.970032 -0
    outer loop
      vertex 4.82945 0.115295 4
      vertex 4.25829 0.258362 0
      vertex 4.82945 0.115295 0
    endloop
  endfacet
  facet normal 0.0490648 -0.998796 0
    outer loop
      vertex 214 0 0
      vertex 214.588 0.0288849 4
      vertex 214 0 4
    endloop
  endfacet
  facet normal 0.0490648 -0.998796 0
    outer loop
      vertex 214.588 0.0288849 4
      vertex 214 0 0
      vertex 214.588 0.0288849 0
    endloop
  endfacet
  facet normal -0.0492515 0.998786 0
    outer loop
      vertex 6 140 0
      vertex 5.4119 139.971 4
      vertex 6 140 4
    endloop
  endfacet
  facet normal -0.0492515 0.998786 0
    outer loop
      vertex 5.4119 139.971 4
      vertex 6 140 0
      vertex 5.4119 139.971 0
    endloop
  endfacet
  facet normal 0.803015 -0.595958 0
    outer loop
      vertex 218.638 2.19363 4
      vertex 218.989 2.66658 0
      vertex 218.989 2.66658 4
    endloop
  endfacet
  facet normal 0.803015 -0.595958 0
    outer loop
      vertex 218.989 2.66658 0
      vertex 218.638 2.19363 4
      vertex 218.638 2.19363 0
    endloop
  endfacet
  facet normal -1 0 0
    outer loop
      vertex 0 6 0
      vertex 0 134 4
      vertex 0 134 0
    endloop
  endfacet
  facet normal -1 -0 0
    outer loop
      vertex 0 134 4
      vertex 0 6 0
      vertex 0 6 4
    endloop
  endfacet
  facet normal -0.0490565 -0.998796 0
    outer loop
      vertex 5.4119 0.0288849 0
      vertex 6 0 4
      vertex 5.4119 0.0288849 4
    endloop
  endfacet
  facet normal -0.0490565 -0.998796 -0
    outer loop
      vertex 6 0 4
      vertex 5.4119 0.0288849 0
      vertex 6 0 0
    endloop
  endfacet
  facet normal 0.0492599 0.998786 -0
    outer loop
      vertex 214.588 139.971 0
      vertex 214 140 4
      vertex 214.588 139.971 4
    endloop
  endfacet
  facet normal 0.0492599 0.998786 0
    outer loop
      vertex 214 140 4
      vertex 214.588 139.971 0
      vertex 214 140 0
    endloop
  endfacet
  facet normal 0 -1 0
    outer loop
      vertex 6 0 0
      vertex 214 0 4
      vertex 6 0 4
    endloop
  endfacet
  facet normal 0 -1 -0
    outer loop
      vertex 214 0 4
      vertex 6 0 0
      vertex 214 0 0
    endloop
  endfacet
  facet normal 0.338058 0.941125 -0
    outer loop
      vertex 216.296 139.543 0
      vertex 215.742 139.742 4
      vertex 216.296 139.543 4
    endloop
  endfacet
  facet normal 0.338058 0.941125 0
    outer loop
      vertex 215.742 139.742 4
      vertex 216.296 139.543 0
      vertex 215.742 139.742 0
    endloop
  endfacet
  facet normal 0.803046 0.595918 0
    outer loop
      vertex 218.989 137.333 4
      vertex 218.638 137.806 0
      vertex 218.638 137.806 4
    endloop
  endfacet
  facet normal 0.803046 0.595918 0
    outer loop
      vertex 218.638 137.806 0
      vertex 218.989 137.333 4
      vertex 218.989 137.333 0
    endloop
  endfacet
  facet normal 0.970059 -0.242871 0
    outer loop
      vertex 219.742 4.25829 4
      vertex 219.885 4.82945 0
      vertex 219.885 4.82945 4
    endloop
  endfacet
  facet normal 0.970059 -0.242871 0
    outer loop
      vertex 219.885 4.82945 0
      vertex 219.742 4.25829 4
      vertex 219.742 4.25829 0
    endloop
  endfacet
  facet normal -0.427542 -0.903996 0
    outer loop
      vertex 3.17162 0.708466 0
      vertex 3.7039 0.456726 4
      vertex 3.17162 0.708466 4
    endloop
  endfacet
  facet normal -0.427542 -0.903996 -0
    outer loop
      vertex 3.7039 0.456726 4
      vertex 3.17162 0.708466 0
      vertex 3.7039 0.456726 0
    endloop
  endfacet
  facet normal -0.514109 -0.857725 0
    outer loop
      vertex 2.66658 1.01118 0
      vertex 3.17162 0.708466 4
      vertex 2.66658 1.01118 4
    endloop
  endfacet
  facet normal -0.514109 -0.857725 -0
    outer loop
      vertex 3.17162 0.708466 4
      vertex 2.66658 1.01118 0
      vertex 3.17162 0.708466 0
    endloop
  endfacet
  facet normal -0.998796 -0.0490565 0
    outer loop
      vertex 0.0288849 5.4119 0
      vertex 0 6 4
      vertex 0 6 0
    endloop
  endfacet
  facet normal -0.998796 -0.0490565 0
    outer loop
      vertex 0 6 4
      vertex 0.0288849 5.4119 0
      vertex 0.0288849 5.4119 4
    endloop
  endfacet
  facet normal 0 1 -0
    outer loop
      vertex 214 140 0
      vertex 6 140 4
      vertex 214 140 4
    endloop
  endfacet
  facet normal 0 1 0
    outer loop
      vertex 6 140 4
      vertex 214 140 0
      vertex 6 140 0
    endloop
  endfacet
  facet normal -0.146069 0.989274 0
    outer loop
      vertex 5.4119 139.971 0
      vertex 4.82945 139.885 4
      vertex 5.4119 139.971 4
    endloop
  endfacet
  facet normal -0.146069 0.989274 0
    outer loop
      vertex 4.82945 139.885 4
      vertex 5.4119 139.971 0
      vertex 4.82945 139.885 0
    endloop
  endfacet
  facet normal -0.33689 -0.941544 0
    outer loop
      vertex 3.7039 0.456726 0
      vertex 4.25829 0.258362 4
      vertex 3.7039 0.456726 4
    endloop
  endfacet
  facet normal -0.33689 -0.941544 -0
    outer loop
      vertex 4.25829 0.258362 4
      vertex 3.7039 0.456726 0
      vertex 4.25829 0.258362 0
    endloop
  endfacet
  facet normal -0.242871 0.970059 0
    outer loop
      vertex 4.82945 139.885 0
      vertex 4.25829 139.742 4
      vertex 4.82945 139.885 4
    endloop
  endfacet
  facet normal -0.242871 0.970059 0
    outer loop
      vertex 4.25829 139.742 4
      vertex 4.82945 139.885 0
      vertex 4.25829 139.742 0
    endloop
  endfacet
  facet normal -0.903996 -0.427542 0
    outer loop
      vertex 0.708466 3.17162 0
      vertex 0.456726 3.7039 4
      vertex 0.456726 3.7039 0
    endloop
  endfacet
  facet normal -0.903996 -0.427542 0
    outer loop
      vertex 0.456726 3.7039 4
      vertex 0.708466 3.17162 0
      vertex 0.708466 3.17162 4
    endloop
  endfacet
  facet normal -0.514466 0.857511 0
    outer loop
      vertex 3.17162 139.292 0
      vertex 2.66658 138.989 4
      vertex 3.17162 139.292 4
    endloop
  endfacet
  facet normal -0.514466 0.857511 0
    outer loop
      vertex 2.66658 138.989 4
      vertex 3.17162 139.292 0
      vertex 2.66658 138.989 0
    endloop
  endfacet
  facet normal 1 -0 0
    outer loop
      vertex 220 6 4
      vertex 220 134 0
      vertex 220 134 4
    endloop
  endfacet
  facet normal 1 0 0
    outer loop
      vertex 220 134 0
      vertex 220 6 4
      vertex 220 6 0
    endloop
  endfacet
  facet normal -0.671166 0.741307 0
    outer loop
      vertex 2.19363 138.638 0
      vertex 1.75735 138.243 4
      vertex 2.19363 138.638 4
    endloop
  endfacet
  facet normal -0.671166 0.741307 0
    outer loop
      vertex 1.75735 138.243 4
      vertex 2.19363 138.638 0
      vertex 1.75735 138.243 0
    endloop
  endfacet
  facet normal -0.741511 0.67094 0
    outer loop
      vertex 1.36194 137.806 0
      vertex 1.75735 138.243 4
      vertex 1.75735 138.243 0
    endloop
  endfacet
  facet normal -0.741511 0.67094 0
    outer loop
      vertex 1.75735 138.243 4
      vertex 1.36194 137.806 0
      vertex 1.36194 137.806 4
    endloop
  endfacet
  facet normal -0.337847 0.941201 0
    outer loop
      vertex 4.25829 139.742 0
      vertex 3.7039 139.543 4
      vertex 4.25829 139.742 4
    endloop
  endfacet
  facet normal -0.337847 0.941201 0
    outer loop
      vertex 3.7039 139.543 4
      vertex 4.25829 139.742 0
      vertex 3.7039 139.543 0
    endloop
  endfacet
  facet normal -0.941469 0.3371 0
    outer loop
      vertex 0.258362 135.742 0
      vertex 0.456726 136.296 4
      vertex 0.456726 136.296 0
    endloop
  endfacet
  facet normal -0.941469 0.3371 0
    outer loop
      vertex 0.456726 136.296 4
      vertex 0.258362 135.742 0
      vertex 0.258362 135.742 4
    endloop
  endfacet
  facet normal 0.427726 -0.903909 0
    outer loop
      vertex 216.296 0.456726 0
      vertex 216.828 0.708466 4
      vertex 216.296 0.456726 4
    endloop
  endfacet
  facet normal 0.427726 -0.903909 0
    outer loop
      vertex 216.828 0.708466 4
      vertex 216.296 0.456726 0
      vertex 216.828 0.708466 0
    endloop
  endfacet
  facet normal -0.14675 -0.989174 0
    outer loop
      vertex 4.82945 0.115295 0
      vertex 5.4119 0.0288849 4
      vertex 4.82945 0.115295 4
    endloop
  endfacet
  facet normal -0.14675 -0.989174 -0
    outer loop
      vertex 5.4119 0.0288849 4
      vertex 4.82945 0.115295 0
      vertex 5.4119 0.0288849 0
    endloop
  endfacet
  facet normal 0.514496 0.857493 -0
    outer loop
      vertex 217.333 138.989 0
      vertex 216.828 139.292 4
      vertex 217.333 138.989 4
    endloop
  endfacet
  facet normal 0.514496 0.857493 0
    outer loop
      vertex 216.828 139.292 4
      vertex 217.333 138.989 0
      vertex 216.828 139.292 0
    endloop
  endfacet
  facet normal 0.670558 0.741857 -0
    outer loop
      vertex 218.243 138.243 0
      vertex 217.806 138.638 4
      vertex 218.243 138.243 4
    endloop
  endfacet
  facet normal 0.670558 0.741857 0
    outer loop
      vertex 217.806 138.638 4
      vertex 218.243 138.243 0
      vertex 217.806 138.638 0
    endloop
  endfacet
  facet normal -0.989194 0.146615 0
    outer loop
      vertex 0.0288849 134.588 0
      vertex 0.115295 135.171 4
      vertex 0.115295 135.171 0
    endloop
  endfacet
  facet normal -0.989194 0.146615 0
    outer loop
      vertex 0.115295 135.171 4
      vertex 0.0288849 134.588 0
      vertex 0.0288849 134.588 4
    endloop
  endfacet
  facet normal 0.514139 -0.857707 0
    outer loop
      vertex 216.828 0.708466 0
      vertex 217.333 1.01118 4
      vertex 216.828 0.708466 4
    endloop
  endfacet
  facet normal 0.514139 -0.857707 0
    outer loop
      vertex 217.333 1.01118 4
      vertex 216.828 0.708466 0
      vertex 217.333 1.01118 0
    endloop
  endfacet
  facet normal -0.970032 -0.242978 0
    outer loop
      vertex 0.258362 4.25829 0
      vertex 0.115295 4.82945 4
      vertex 0.115295 4.82945 0
    endloop
  endfacet
  facet normal -0.970032 -0.242978 0
    outer loop
      vertex 0.115295 4.82945 4
      vertex 0.258362 4.25829 0
      vertex 0.258362 4.25829 4
    endloop
  endfacet
  facet normal -0.998796 0.0490648 0
    outer loop
      vertex 0 134 0
      vertex 0.0288849 134.588 4
      vertex 0.0288849 134.588 0
    endloop
  endfacet
  facet normal -0.998796 0.0490648 0
    outer loop
      vertex 0.0288849 134.588 4
      vertex 0 134 0
      vertex 0 134 4
    endloop
  endfacet
  facet normal -0.740961 -0.671549 0
    outer loop
      vertex 1.75735 1.75735 0
      vertex 1.36194 2.19363 4
      vertex 1.36194 2.19363 0
    endloop
  endfacet
  facet normal -0.740961 -0.671549 0
    outer loop
      vertex 1.36194 2.19363 4
      vertex 1.75735 1.75735 0
      vertex 1.75735 1.75735 4
    endloop
  endfacet
  facet normal -0.989174 -0.14675 0
    outer loop
      vertex 0.115295 4.82945 0
      vertex 0.0288849 5.4119 4
      vertex 0.0288849 5.4119 0
    endloop
  endfacet
  facet normal -0.989174 -0.14675 0
    outer loop
      vertex 0.0288849 5.4119 4
      vertex 0.115295 4.82945 0
      vertex 0.115295 4.82945 4
    endloop
  endfacet
  facet normal -0.803241 0.595655 0
    outer loop
      vertex 1.01118 137.333 0
      vertex 1.36194 137.806 4
      vertex 1.36194 137.806 0
    endloop
  endfacet
  facet normal -0.803241 0.595655 0
    outer loop
      vertex 1.36194 137.806 4
      vertex 1.01118 137.333 0
      vertex 1.01118 137.333 4
    endloop
  endfacet
  facet normal 0.426697 0.904394 -0
    outer loop
      vertex 216.828 139.292 0
      vertex 216.296 139.543 4
      vertex 216.828 139.292 4
    endloop
  endfacet
  facet normal 0.426697 0.904394 0
    outer loop
      vertex 216.296 139.543 4
      vertex 216.828 139.292 0
      vertex 216.296 139.543 0
    endloop
  endfacet
  facet normal -0.941544 -0.33689 0
    outer loop
      vertex 0.456726 3.7039 0
      vertex 0.258362 4.25829 4
      vertex 0.258362 4.25829 0
    endloop
  endfacet
  facet normal -0.941544 -0.33689 0
    outer loop
      vertex 0.258362 4.25829 4
      vertex 0.456726 3.7039 0
      vertex 0.456726 3.7039 4
    endloop
  endfacet
  facet normal -0.80321 -0.595695 0
    outer loop
      vertex 1.36194 2.19363 0
      vertex 1.01118 2.66658 4
      vertex 1.01118 2.66658 0
    endloop
  endfacet
  facet normal -0.80321 -0.595695 0
    outer loop
      vertex 1.01118 2.66658 4
      vertex 1.36194 2.19363 0
      vertex 1.36194 2.19363 4
    endloop
  endfacet
  facet normal -0.857725 -0.514109 0
    outer loop
      vertex 1.01118 2.66658 0
      vertex 0.708466 3.17162 4
      vertex 0.708466 3.17162 0
    endloop
  endfacet
  facet normal -0.857725 -0.514109 0
    outer loop
      vertex 0.708466 3.17162 4
      vertex 1.01118 2.66658 0
      vertex 1.01118 2.66658 4
    endloop
  endfacet
  facet normal -0.970016 0.243042 0
    outer loop
      vertex 0.115295 135.171 0
      vertex 0.258362 135.742 4
      vertex 0.258362 135.742 0
    endloop
  endfacet
  facet normal -0.970016 0.243042 0
    outer loop
      vertex 0.258362 135.742 4
      vertex 0.115295 135.171 0
      vertex 0.115295 135.171 4
    endloop
  endfacet
  facet normal 0.243042 -0.970016 0
    outer loop
      vertex 215.171 0.115295 0
      vertex 215.742 0.258362 4
      vertex 215.171 0.115295 4
    endloop
  endfacet
  facet normal 0.243042 -0.970016 0
    outer loop
      vertex 215.742 0.258362 4
      vertex 215.171 0.115295 0
      vertex 215.742 0.258362 0
    endloop
  endfacet
  facet normal 0.941125 0.338058 0
    outer loop
      vertex 219.742 135.742 4
      vertex 219.543 136.296 0
      vertex 219.543 136.296 4
    endloop
  endfacet
  facet normal 0.941125 0.338058 0
    outer loop
      vertex 219.543 136.296 0
      vertex 219.742 135.742 4
      vertex 219.742 135.742 0
    endloop
  endfacet
  facet normal -0.595695 -0.80321 0
    outer loop
      vertex 2.19363 1.36194 0
      vertex 2.66658 1.01118 4
      vertex 2.19363 1.36194 4
    endloop
  endfacet
  facet normal -0.595695 -0.80321 -0
    outer loop
      vertex 2.66658 1.01118 4
      vertex 2.19363 1.36194 0
      vertex 2.66658 1.01118 0
    endloop
  endfacet
  facet normal -0.426514 0.904481 0
    outer loop
      vertex 3.7039 139.543 0
      vertex 3.17162 139.292 4
      vertex 3.7039 139.543 4
    endloop
  endfacet
  facet normal -0.426514 0.904481 0
    outer loop
      vertex 3.17162 139.292 4
      vertex 3.7039 139.543 0
      vertex 3.17162 139.292 0
    endloop
  endfacet
  facet normal 0.145934 0.989294 -0
    outer loop
      vertex 215.171 139.885 0
      vertex 214.588 139.971 4
      vertex 215.171 139.885 4
    endloop
  endfacet
  facet normal 0.145934 0.989294 0
    outer loop
      vertex 214.588 139.971 4
      vertex 215.171 139.885 0
      vertex 214.588 139.971 0
    endloop
  endfacet
  facet normal 0.998786 -0.0492515 0
    outer loop
      vertex 219.971 5.4119 4
      vertex 220 6 0
      vertex 220 6 4
    endloop
  endfacet
  facet normal 0.998786 -0.0492515 0
    outer loop
      vertex 220 6 0
      vertex 219.971 5.4119 4
      vertex 219.971 5.4119 0
    endloop
  endfacet
  facet normal 0.741857 0.670558 0
    outer loop
      vertex 218.638 137.806 4
      vertex 218.243 138.243 0
      vertex 218.243 138.243 4
    endloop
  endfacet
  facet normal 0.741857 0.670558 0
    outer loop
      vertex 218.243 138.243 0
      vertex 218.638 137.806 4
      vertex 218.638 137.806 0
    endloop
  endfacet
  facet normal 0.242935 0.970042 -0
    outer loop
      vertex 215.742 139.742 0
      vertex 215.171 139.885 4
      vertex 215.742 139.742 4
    endloop
  endfacet
  facet normal 0.242935 0.970042 0
    outer loop
      vertex 215.171 139.885 4
      vertex 215.742 139.742 0
      vertex 215.171 139.885 0
    endloop
  endfacet
  facet normal 0.904394 0.426697 0
    outer loop
      vertex 219.543 136.296 4
      vertex 219.292 136.828 0
      vertex 219.292 136.828 4
    endloop
  endfacet
  facet normal 0.904394 0.426697 0
    outer loop
      vertex 219.292 136.828 0
      vertex 219.543 136.296 4
      vertex 219.543 136.296 0
    endloop
  endfacet
  facet normal 0.741307 -0.671166 0
    outer loop
      vertex 218.243 1.75735 4
      vertex 218.638 2.19363 0
      vertex 218.638 2.19363 4
    endloop
  endfacet
  facet normal 0.741307 -0.671166 0
    outer loop
      vertex 218.638 2.19363 0
      vertex 218.243 1.75735 4
      vertex 218.243 1.75735 0
    endloop
  endfacet
  facet normal 0.146615 -0.989194 0
    outer loop
      vertex 214.588 0.0288849 0
      vertex 215.171 0.115295 4
      vertex 214.588 0.0288849 4
    endloop
  endfacet
  facet normal 0.146615 -0.989194 0
    outer loop
      vertex 215.171 0.115295 4
      vertex 214.588 0.0288849 0
      vertex 215.171 0.115295 0
    endloop
  endfacet
  facet normal 0.595918 0.803046 -0
    outer loop
      vertex 217.806 138.638 0
      vertex 217.333 138.989 4
      vertex 217.806 138.638 4
    endloop
  endfacet
  facet normal 0.595918 0.803046 0
    outer loop
      vertex 217.333 138.989 4
      vertex 217.806 138.638 0
      vertex 217.333 138.989 0
    endloop
  endfacet
  facet normal 0 0 -1
    outer loop
      vertex 214 0 0
      vertex 220 6 0
      vertex 219.971 5.4119 0
    endloop
  endfacet
  facet normal -0 0 -1
    outer loop
      vertex 220 6 0
      vertex 214 0 0
      vertex 220 134 0
    endloop
  endfacet
  facet normal 0 0 -1
    outer loop
      vertex 214 0 0
      vertex 219.971 5.4119 0
      vertex 219.885 4.82945 0
    endloop
  endfacet
  facet normal 0 0 -1
    outer loop
      vertex 214 140 0
      vertex 220 134 0
      vertex 214 0 0
    endloop
  endfacet
  facet normal 0 0 -1
    outer loop
      vertex 214 0 0
      vertex 219.885 4.82945 0
      vertex 219.742 4.25829 0
    endloop
  endfacet
  facet normal 0 0 -1
    outer loop
      vertex 220 134 0
      vertex 214 140 0
      vertex 219.971 134.588 0
    endloop
  endfacet
  facet normal 0 0 -1
    outer loop
      vertex 214 0 0
      vertex 219.742 4.25829 0
      vertex 219.543 3.7039 0
    endloop
  endfacet
  facet normal 0 0 -1
    outer loop
      vertex 219.971 134.588 0
      vertex 214 140 0
      vertex 219.885 135.171 0
    endloop
  endfacet
  facet normal 0 0 -1
    outer loop
      vertex 214 0 0
      vertex 219.543 3.7039 0
      vertex 219.292 3.17162 0
    endloop
  endfacet
  facet normal 0 0 -1
    outer loop
      vertex 219.885 135.171 0
      vertex 214 140 0
      vertex 219.742 135.742 0
    endloop
  endfacet
  facet normal 0 0 -1
    outer loop
      vertex 214 0 0
      vertex 219.292 3.17162 0
      vertex 218.989 2.66658 0
    endloop
  endfacet
  facet normal 0 0 -1
    outer loop
      vertex 219.742 135.742 0
      vertex 214 140 0
      vertex 219.543 136.296 0
    endloop
  endfacet
  facet normal 0 0 -1
    outer loop
      vertex 214 0 0
      vertex 218.989 2.66658 0
      vertex 218.638 2.19363 0
    endloop
  endfacet
  facet normal 0 0 -1
    outer loop
      vertex 219.543 136.296 0
      vertex 214 140 0
      vertex 219.292 136.828 0
    endloop
  endfacet
  facet normal 0 0 -1
    outer loop
      vertex 214 0 0
      vertex 218.638 2.19363 0
      vertex 218.243 1.75735 0
    endloop
  endfacet
  facet normal 0 0 -1
    outer loop
      vertex 219.292 136.828 0
      vertex 214 140 0
      vertex 218.989 137.333 0
    endloop
  endfacet
  facet normal 0 0 -1
    outer loop
      vertex 214 0 0
      vertex 218.243 1.75735 0
      vertex 217.806 1.36194 0
    endloop
  endfacet
  facet normal 0 0 -1
    outer loop
      vertex 218.989 137.333 0
      vertex 214 140 0
      vertex 218.638 137.806 0
    endloop
  endfacet
  facet normal 0 0 -1
    outer loop
      vertex 214 0 0
      vertex 217.806 1.36194 0
      vertex 217.333 1.01118 0
    endloop
  endfacet
  facet normal 0 0 -1
    outer loop
      vertex 218.638 137.806 0
      vertex 214 140 0
      vertex 218.243 138.243 0
    endloop
  endfacet
  facet normal 0 0 -1
    outer loop
      vertex 214 0 0
      vertex 217.333 1.01118 0
      vertex 216.828 0.708466 0
    endloop
  endfacet
  facet normal 0 0 -1
    outer loop
      vertex 218.243 138.243 0
      vertex 214 140 0
      vertex 217.806 138.638 0
    endloop
  endfacet
  facet normal 0 0 -1
    outer loop
      vertex 214 0 0
      vertex 216.828 0.708466 0
      vertex 216.296 0.456726 0
    endloop
  endfacet
  facet normal 0 0 -1
    outer loop
      vertex 217.806 138.638 0
      vertex 214 140 0
      vertex 217.333 138.989 0
    endloop
  endfacet
  facet normal 0 0 -1
    outer loop
      vertex 214 0 0
      vertex 216.296 0.456726 0
      vertex 215.742 0.258362 0
    endloop
  endfacet
  facet normal 0 0 -1
    outer loop
      vertex 217.333 138.989 0
      vertex 214 140 0
      vertex 216.828 139.292 0
    endloop
  endfacet
  facet normal 0 0 -1
    outer loop
      vertex 214 0 0
      vertex 215.742 0.258362 0
      vertex 215.171 0.115295 0
    endloop
  endfacet
  facet normal 0 0 -1
    outer loop
      vertex 216.828 139.292 0
      vertex 214 140 0
      vertex 216.296 139.543 0
    endloop
  endfacet
  facet normal 0 0 -1
    outer loop
      vertex 214 0 0
      vertex 215.171 0.115295 0
      vertex 214.588 0.0288849 0
    endloop
  endfacet
  facet normal 0 0 -1
    outer loop
      vertex 216.296 139.543 0
      vertex 214 140 0
      vertex 215.742 139.742 0
    endloop
  endfacet
  facet normal 0 0 -1
    outer loop
      vertex 215.742 139.742 0
      vertex 214 140 0
      vertex 215.171 139.885 0
    endloop
  endfacet
  facet normal 0 0 -1
    outer loop
      vertex 215.171 139.885 0
      vertex 214 140 0
      vertex 214.588 139.971 0
    endloop
  endfacet
  facet normal 0 0 -1
    outer loop
      vertex 6 0 0
      vertex 214 140 0
      vertex 214 0 0
    endloop
  endfacet
  facet normal 0 0 -1
    outer loop
      vertex 6 0 0
      vertex 6 140 0
      vertex 214 140 0
    endloop
  endfacet
  facet normal 0 0 -1
    outer loop
      vertex 0 6 0
      vertex 6 0 0
      vertex 5.4119 0.0288849 0
    endloop
  endfacet
  facet normal 0 0 -1
    outer loop
      vertex 6 0 0
      vertex 0 6 0
      vertex 6 140 0
    endloop
  endfacet
  facet normal 0 0 -1
    outer loop
      vertex 0 6 0
      vertex 5.4119 0.0288849 0
      vertex 4.82945 0.115295 0
    endloop
  endfacet
  facet normal 0 0 -1
    outer loop
      vertex 0 134 0
      vertex 6 140 0
      vertex 0 6 0
    endloop
  endfacet
  facet normal 0 0 -1
    outer loop
      vertex 0 6 0
      vertex 4.82945 0.115295 0
      vertex 4.25829 0.258362 0
    endloop
  endfacet
  facet normal 0 0 -1
    outer loop
      vertex 6 140 0
      vertex 0 134 0
      vertex 5.4119 139.971 0
    endloop
  endfacet
  facet normal 0 0 -1
    outer loop
      vertex 0 6 0
      vertex 4.25829 0.258362 0
      vertex 3.7039 0.456726 0
    endloop
  endfacet
  facet normal 0 0 -1
    outer loop
      vertex 5.4119 139.971 0
      vertex 0 134 0
      vertex 4.82945 139.885 0
    endloop
  endfacet
  facet normal 0 0 -1
    outer loop
      vertex 0 6 0
      vertex 3.7039 0.456726 0
      vertex 3.17162 0.708466 0
    endloop
  endfacet
  facet normal 0 0 -1
    outer loop
      vertex 4.82945 139.885 0
      vertex 0 134 0
      vertex 4.25829 139.742 0
    endloop
  endfacet
  facet normal 0 0 -1
    outer loop
      vertex 0 6 0
      vertex 3.17162 0.708466 0
      vertex 2.66658 1.01118 0
    endloop
  endfacet
  facet normal 0 0 -1
    outer loop
      vertex 4.25829 139.742 0
      vertex 0 134 0
      vertex 3.7039 139.543 0
    endloop
  endfacet
  facet normal 0 0 -1
    outer loop
      vertex 0 6 0
      vertex 2.66658 1.01118 0
      vertex 2.19363 1.36194 0
    endloop
  endfacet
  facet normal 0 0 -1
    outer loop
      vertex 3.7039 139.543 0
      vertex 0 134 0
      vertex 3.17162 139.292 0
    endloop
  endfacet
  facet normal 0 0 -1
    outer loop
      vertex 0 6 0
      vertex 2.19363 1.36194 0
      vertex 1.75735 1.75735 0
    endloop
  endfacet
  facet normal 0 0 -1
    outer loop
      vertex 3.17162 139.292 0
      vertex 0 134 0
      vertex 2.66658 138.989 0
    endloop
  endfacet
  facet normal 0 0 -1
    outer loop
      vertex 0 6 0
      vertex 1.75735 1.75735 0
      vertex 1.36194 2.19363 0
    endloop
  endfacet
  facet normal 0 0 -1
    outer loop
      vertex 2.66658 138.989 0
      vertex 0 134 0
      vertex 2.19363 138.638 0
    endloop
  endfacet
  facet normal 0 0 -1
    outer loop
      vertex 0 6 0
      vertex 1.36194 2.19363 0
      vertex 1.01118 2.66658 0
    endloop
  endfacet
  facet normal 0 0 -1
    outer loop
      vertex 2.19363 138.638 0
      vertex 0 134 0
      vertex 1.75735 138.243 0
    endloop
  endfacet
  facet normal 0 0 -1
    outer loop
      vertex 0 6 0
      vertex 1.01118 2.66658 0
      vertex 0.708466 3.17162 0
    endloop
  endfacet
  facet normal 0 0 -1
    outer loop
      vertex 1.75735 138.243 0
      vertex 0 134 0
      vertex 1.36194 137.806 0
    endloop
  endfacet
  facet normal 0 0 -1
    outer loop
      vertex 0 6 0
      vertex 0.708466 3.17162 0
      vertex 0.456726 3.7039 0
    endloop
  endfacet
  facet normal 0 0 -1
    outer loop
      vertex 1.36194 137.806 0
      vertex 0 134 0
      vertex 1.01118 137.333 0
    endloop
  endfacet
  facet normal 0 0 -1
    outer loop
      vertex 0 6 0
      vertex 0.456726 3.7039 0
      vertex 0.258362 4.25829 0
    endloop
  endfacet
  facet normal 0 0 -1
    outer loop
      vertex 1.01118 137.333 0
      vertex 0 134 0
      vertex 0.708466 136.828 0
    endloop
  endfacet
  facet normal 0 0 -1
    outer loop
      vertex 0 6 0
      vertex 0.258362 4.25829 0
      vertex 0.115295 4.82945 0
    endloop
  endfacet
  facet normal 0 0 -1
    outer loop
      vertex 0.708466 136.828 0
      vertex 0 134 0
      vertex 0.456726 136.296 0
    endloop
  endfacet
  facet normal 0 0 -1
    outer loop
      vertex 0 6 0
      vertex 0.115295 4.82945 0
      vertex 0.0288849 5.4119 0
    endloop
  endfacet
  facet normal 0 0 -1
    outer loop
      vertex 0.456726 136.296 0
      vertex 0 134 0
      vertex 0.258362 135.742 0
    endloop
  endfacet
  facet normal 0 0 -1
    outer loop
      vertex 0.258362 135.742 0
      vertex 0 134 0
      vertex 0.115295 135.171 0
    endloop
  endfacet
  facet normal 0 0 -1
    outer loop
      vertex 0.115295 135.171 0
      vertex 0 134 0
      vertex 0.0288849 134.588 0
    endloop
  endfacet
  facet normal 0.998786 0.0492599 0
    outer loop
      vertex 220 134 4
      vertex 219.971 134.588 0
      vertex 219.971 134.588 4
    endloop
  endfacet
  facet normal 0.998786 0.0492599 0
    outer loop
      vertex 219.971 134.588 0
      vertex 220 134 4
      vertex 220 134 0
    endloop
  endfacet
  facet normal 0.595655 -0.803241 0
    outer loop
      vertex 217.333 1.01118 0
      vertex 217.806 1.36194 4
      vertex 217.333 1.01118 4
    endloop
  endfacet
  facet normal 0.595655 -0.803241 0
    outer loop
      vertex 217.806 1.36194 4
      vertex 217.333 1.01118 0
      vertex 217.806 1.36194 0
    endloop
  endfacet
  facet normal 0.857511 -0.514466 0
    outer loop
      vertex 218.989 2.66658 4
      vertex 219.292 3.17162 0
      vertex 219.292 3.17162 4
    endloop
  endfacet
  facet normal 0.857511 -0.514466 0
    outer loop
      vertex 219.292 3.17162 0
      vertex 218.989 2.66658 4
      vertex 218.989 2.66658 0
    endloop
  endfacet
  facet normal 0.67094 -0.741511 0
    outer loop
      vertex 217.806 1.36194 0
      vertex 218.243 1.75735 4
      vertex 217.806 1.36194 4
    endloop
  endfacet
  facet normal 0.67094 -0.741511 0
    outer loop
      vertex 218.243 1.75735 4
      vertex 217.806 1.36194 0
      vertex 218.243 1.75735 0
    endloop
  endfacet
  facet normal -0.595958 0.803015 0
    outer loop
      vertex 2.66658 138.989 0
      vertex 2.19363 138.638 4
      vertex 2.66658 138.989 4
    endloop
  endfacet
  facet normal -0.595958 0.803015 0
    outer loop
      vertex 2.19363 138.638 4
      vertex 2.66658 138.989 0
      vertex 2.19363 138.638 0
    endloop
  endfacet
  facet normal 0.970042 0.242935 0
    outer loop
      vertex 219.885 135.171 4
      vertex 219.742 135.742 0
      vertex 219.742 135.742 4
    endloop
  endfacet
  facet normal 0.970042 0.242935 0
    outer loop
      vertex 219.742 135.742 0
      vertex 219.885 135.171 4
      vertex 219.885 135.171 0
    endloop
  endfacet
  facet normal -0.903909 0.427726 0
    outer loop
      vertex 0.456726 136.296 0
      vertex 0.708466 136.828 4
      vertex 0.708466 136.828 0
    endloop
  endfacet
  facet normal -0.903909 0.427726 0
    outer loop
      vertex 0.708466 136.828 4
      vertex 0.456726 136.296 0
      vertex 0.456726 136.296 4
    endloop
  endfacet
  facet normal -0.671549 -0.740961 0
    outer loop
      vertex 1.75735 1.75735 0
      vertex 2.19363 1.36194 4
      vertex 1.75735 1.75735 4
    endloop
  endfacet
  facet normal -0.671549 -0.740961 -0
    outer loop
      vertex 2.19363 1.36194 4
      vertex 1.75735 1.75735 0
      vertex 2.19363 1.36194 0
    endloop
  endfacet
  facet normal -0.857707 0.514139 0
    outer loop
      vertex 0.708466 136.828 0
      vertex 1.01118 137.333 4
      vertex 1.01118 137.333 0
    endloop
  endfacet
  facet normal -0.857707 0.514139 0
    outer loop
      vertex 1.01118 137.333 4
      vertex 0.708466 136.828 0
      vertex 0.708466 136.828 4
    endloop
  endfacet
  facet normal 0.989274 -0.146069 0
    outer loop
      vertex 219.885 4.82945 4
      vertex 219.971 5.4119 0
      vertex 219.971 5.4119 4
    endloop
  endfacet
  facet normal 0.989274 -0.146069 0
    outer loop
      vertex 219.971 5.4119 0
      vertex 219.885 4.82945 4
      vertex 219.885 4.82945 0
    endloop
  endfacet
  facet normal 0.941201 -0.337847 0
    outer loop
      vertex 219.543 3.7039 4
      vertex 219.742 4.25829 0
      vertex 219.742 4.25829 4
    endloop
  endfacet
  facet normal 0.941201 -0.337847 0
    outer loop
      vertex 219.742 4.25829 0
      vertex 219.543 3.7039 4
      vertex 219.543 3.7039 0
    endloop
  endfacet
  facet normal 0.857493 0.514496 0
    outer loop
      vertex 219.292 136.828 4
      vertex 218.989 137.333 0
      vertex 218.989 137.333 4
    endloop
  endfacet
  facet normal 0.857493 0.514496 0
    outer loop
      vertex 218.989 137.333 0
      vertex 219.292 136.828 4
      vertex 219.292 136.828 0
    endloop
  endfacet
  facet normal 0.904481 -0.426514 0
    outer loop
      vertex 219.292 3.17162 4
      vertex 219.543 3.7039 0
      vertex 219.543 3.7039 4
    endloop
  endfacet
  facet normal 0.904481 -0.426514 0
    outer loop
      vertex 219.543 3.7039 0
      vertex 219.292 3.17162 4
      vertex 219.292 3.17162 0
    endloop
  endfacet
  facet normal 0.3371 -0.941469 0
    outer loop
      vertex 215.742 0.258362 0
      vertex 216.296 0.456726 4
      vertex 215.742 0.258362 4
    endloop
  endfacet
  facet normal 0.3371 -0.941469 0
    outer loop
      vertex 216.296 0.456726 4
      vertex 215.742 0.258362 0
      vertex 216.296 0.456726 0
    endloop
  endfacet
  facet normal 0.989294 0.145934 0
    outer loop
      vertex 219.971 134.588 4
      vertex 219.885 135.171 0
      vertex 219.885 135.171 4
    endloop
  endfacet
  facet normal 0.989294 0.145934 0
    outer loop
      vertex 219.885 135.171 0
      vertex 219.971 134.588 4
      vertex 219.971 134.588 0
    endloop
  endfacet
endsolid OpenSCAD_Model
